<svg width="5830" height="4714" viewBox="0 0 5830 4714" fill="none" xmlns="http://www.w3.org/2000/svg">
<path d="M4506.11 961.607C4147.33 1265.69 3791.68 1608.54 3438.81 1978.61L3306.78 1813.72C3345.24 1781.11 3383.07 1748.62 3420.64 1715.61C3716.16 1460.77 4000.15 1190.77 4270.12 907.949C4305.15 871.085 4339.94 833.978 4374.15 796.799L4506.11 961.607Z" fill="url(#paint0_linear_32_42)"/>
<path d="M4506.11 961.607C4147.33 1265.69 3791.68 1608.54 3438.81 1978.61L3306.78 1813.72C3345.24 1781.1 3383.07 1748.62 3420.64 1715.61C3464.92 1737.97 3505.75 1765.47 3553.69 1781.88C3794.32 1532.41 4042.94 1282.42 4297.75 1049.65C4284.19 1004.95 4274.96 957.581 4270.12 907.949C4305.15 871.085 4339.94 833.978 4374.15 796.799L4506.11 961.607Z" fill="#772B60"/>
<path d="M3517.65 2135.93C2912.31 2583.55 2342.15 3127.9 1847.98 3717.43C1744.55 3841.14 1685.76 3894.79 1552.02 3957.71C1421.55 4018.87 1285.68 4026.51 1158 4053.39L1148.54 4055.21C1172.51 3953.4 1212.44 3848.82 1266.85 3745.3C1336.09 3614.05 1429.82 3489.39 1542.92 3401.68C2140.65 2936.85 2679.01 2382.19 3120.08 1776.79L3132.11 1785.45C3209.2 1840.63 3276.97 1897.03 3340.66 1956.64C3400.86 2012.21 3457.84 2071.1 3517.65 2135.93Z" fill="url(#paint1_linear_32_42)"/>
<path style="mix-blend-mode:screen" d="M2275.53 2796.44L2119.91 3134.03L1969.34 3280L2195.92 2872.4L2275.53 2796.44Z" fill="url(#paint2_linear_32_42)"/>
<path style="mix-blend-mode:screen" d="M2413.2 2648.75L2256.36 3010.52L2775.16 2495.6L2764.53 2251.2L2413.2 2648.75Z" fill="url(#paint3_linear_32_42)"/>
<path d="M3104.87 1845.82C3043.98 1937.31 2979.04 2027.42 2910.36 2115.72C2774.38 2291.57 2625.92 2460.6 2467.05 2620.45C2378.31 2709.67 2286.35 2795.68 2191.62 2878.06C1993.9 3050.63 1785.36 3206.37 1592.32 3386.24C1471.88 3496.04 1362.17 3617.41 1266.98 3746.18C1336.22 3614.92 1429.94 3490.24 1543.04 3402.53C2140.75 2937.64 2679.09 2382.92 3120.14 1777.44L3132.17 1786.1C3131.89 1802.85 3122.63 1819.38 3104.87 1845.82Z" fill="#FE7033"/>
<path d="M3517.66 2135.76C3515.36 2138.01 3512.52 2139.69 3509.95 2141.41C3409.11 2216.06 3309.4 2293.39 3210.83 2373.41C2715.95 2775.62 2256.51 3228.72 1848.02 3717.38C1744.59 3841.1 1685.81 3894.75 1552.07 3957.68C1489.06 3985.86 1426.13 4005.49 1365.41 4015.91C1295.26 4030.31 1225.58 4039.33 1158.06 4053.36C1407.41 3814.52 2326.66 2931.29 2901.13 2379.33L2911.06 2369.59C3114.02 2174.63 3272.59 2022.54 3340.86 1956.9C3400.87 2012.03 3457.84 2070.93 3517.66 2135.76Z" fill="url(#paint4_linear_32_42)"/>
<path d="M3509.95 2141.41C3409.11 2216.06 3309.4 2293.4 3210.83 2373.41L3028.7 2409.29L1394.47 3912.47L1365.33 4015.83C1295.18 4030.23 1225.5 4039.26 1157.98 4053.29C1407.33 3814.45 2326.58 2931.21 2901.05 2379.25L2910.98 2369.52L3313.57 1985.87L3509.95 2141.41Z" fill="url(#paint5_linear_32_42)"/>
<path d="M3768.2 2230.16C3688.43 2301.62 3572.74 2404.44 3486.2 2461.15C3481.43 2335.55 3452.83 2221.6 3401.58 2124.03C3391.68 2104.58 3380.73 2085.85 3369.13 2068.23C3250.32 1885.41 3049.03 1774.33 2798.97 1768.97C2851.99 1673.66 2923.79 1586.25 3013.9 1523.52C3188.76 1639.25 3349.72 1770.8 3495.76 1917.32C3520.06 1941.98 3544.2 1966.49 3567.61 1992.02C3637.98 2067.86 3704.85 2147.24 3768.2 2230.16Z" fill="url(#paint6_linear_32_42)"/>
<path d="M2798.79 1769.31C2866.63 1674.06 2938.73 1603.46 3016.24 1560.19C3247.83 1717.77 3477.61 1923.05 3706.12 2155.24C3497.1 1903.97 3269.69 1686.87 3013.85 1523.73C2967.05 1547.16 2922.57 1582.1 2886.18 1624.04C2850.41 1670.57 2820.86 1719.69 2798.79 1769.31Z" fill="#FE7033"/>
<path d="M3567.33 1992.17L3401.58 2123.98C3391.68 2104.53 3380.73 2085.78 3369.13 2068.16L3370.64 2009.97L3496 1916.94C3520.04 1941.86 3543.92 1966.62 3567.33 1992.17Z" fill="#4A3666"/>
<path d="M1213.93 3991.34C1213.93 3991.34 2044.18 3186.69 2255.11 2980.24C2466.05 2773.8 3304.05 1974.23 3304.05 1974.23C3304.05 1974.23 2445.69 2843.37 2273.19 3016.41C2100.7 3189.46 1213.93 3991.34 1213.93 3991.34Z" fill="#E1DFF0"/>
<path d="M3332.66 1722.48L3162.53 1929.35L3337.18 2128.79L3564.9 1933.62L3332.66 1722.48Z" fill="url(#paint7_linear_32_42)"/>
<path d="M3547.11 1937.42L3316.38 1765.67L3185.82 1920.48L3285.39 2072.91L3138.65 1936.11L3338.1 1694.98L3564.9 1933.63L3547.11 1937.42Z" fill="#FE7033"/>
<path d="M3486.15 2286.95L3677.54 2144.58L3727.94 2209.75L3500.64 2395.71L3486.15 2286.95Z" fill="#654A92"/>
<path style="mix-blend-mode:screen" d="M3034.37 1574.58L2852.69 1757.81L3045.43 1790.14L3161.97 1667.57L3034.37 1574.58Z" fill="url(#paint8_linear_32_42)"/>
<path style="mix-blend-mode:screen" d="M3323.64 1793.88L3207.13 1934.01L3278.19 2008.72L3417.5 1860.99L3323.64 1793.88Z" fill="url(#paint9_linear_32_42)"/>
<path d="M3425.88 1904.21L3299.31 2043.29L3352.38 2098.71L3524.39 1944.28L3425.88 1904.21Z" fill="#785CA6"/>
<path d="M4323.99 845.161C4316.47 969.919 4446.25 1048.09 4583.88 958.888C4606.58 943.46 4627.71 924.628 4645.99 903.532C4664.27 882.436 4679.33 859.514 4690.25 836.155C4706.94 800.358 4715.52 764.756 4715.25 732.452C4715.7 721.418 4715.12 710.801 4713.53 700.714C4708.89 669.543 4695.46 643.551 4674.36 624.915C4653.27 606.278 4625.12 595.538 4592.27 593.594C4559.26 593.147 4522.31 603.219 4485.88 622.597C4449.46 641.974 4415.12 669.829 4387 702.799C4368.24 725.145 4352.98 749.298 4342.15 773.778C4331.31 798.258 4325.13 822.549 4323.99 845.161Z" fill="url(#paint10_linear_32_42)"/>
<path d="M4323.98 845.172C4332.83 861.675 4346.46 874.213 4363.93 881.925C4392.37 812.712 4427.93 734.466 4492.82 690.067C4540.55 657.723 4592.19 653.237 4629.79 666.775C4664.52 681.738 4693.53 704.07 4715.64 732.861C4716.09 721.827 4715.51 711.21 4713.91 701.122C4709.28 669.949 4695.85 643.957 4674.75 625.319C4653.65 606.681 4625.51 595.941 4592.66 593.997C4559.64 593.55 4522.69 603.623 4486.27 623.001C4449.85 642.38 4415.51 670.235 4387.39 703.207C4368.64 725.455 4353.34 749.516 4342.44 773.923C4331.54 798.331 4325.26 822.573 4323.98 845.172Z" fill="#8B7FC4"/>
<path d="M4664.9 662.009C4686.49 706.291 4676.6 775.541 4630.57 835.529C4602.38 871.402 4564.89 900.455 4526 916.568C4487.11 932.68 4449.85 934.593 4422.08 921.904C4364.16 892.308 4362.36 793.154 4417.2 711.867C4491.51 602.319 4630.07 589.033 4664.9 662.009Z" fill="url(#paint11_linear_32_42)"/>
<path d="M4472.31 869.999C4448.48 864.956 4429.28 852.806 4416.51 834.679C4410.41 827.431 4407.49 817.509 4408.08 806.033C4408.4 801.279 4418.57 772.467 4417.58 771.213C4429.44 787.527 4446.57 798.922 4467.66 804.534C4482.5 807.199 4499.95 804.662 4517.82 797.236C4535.69 789.811 4553.21 777.826 4568.18 762.774C4574.68 756.41 4633.17 676.292 4633.88 677.017C4661.52 705.079 4629.01 795.068 4585.01 832.47C4566.86 847.309 4546.95 858.564 4527.2 865.14C4507.45 871.716 4488.54 873.39 4472.31 869.999Z" fill="#518CCB"/>
<path style="mix-blend-mode:screen" d="M4463.58 711.734C4463.36 706.728 4464.5 701.171 4466.91 695.529C4469.32 689.887 4472.93 684.324 4477.44 679.303C4510.74 641.453 4588.19 624.039 4569.57 681.883C4554.52 727.841 4467.61 748.349 4463.58 711.734Z" fill="#FCE1CE" fill-opacity="0.51"/>
<path d="M3652.52 1692.65C3648.58 1639.29 3654.78 1581.46 3670.88 1521.47C3684.14 1564.41 3701.77 1600.36 3715.33 1642.84C3697.01 1657.78 3670.62 1678.24 3652.52 1692.65Z" fill="#772B60"/>
<path d="M3811.41 1535.78C3807.47 1482.43 3813.67 1424.6 3829.77 1364.61C3843.03 1407.55 3860.66 1443.5 3874.22 1485.98C3855.9 1500.91 3829.48 1521.09 3811.41 1535.78Z" fill="#772B60"/>
<path d="M3969.79 1379.42C3965.86 1326.09 3972.02 1268.31 3988.02 1208.37C4001.33 1251.1 4018.96 1287.05 4032.47 1329.74C4014.79 1344.05 3988.36 1364.23 3969.79 1379.42Z" fill="#772B60"/>
<path d="M4129.32 1221.93C4125.33 1168.6 4131.54 1110.76 4147.69 1050.76C4160.86 1093.61 4178.5 1129.56 4192.13 1172.12C4173.81 1187.06 4147.31 1207.16 4129.32 1221.93Z" fill="#772B60"/>
<path fill-rule="evenodd" clip-rule="evenodd" d="M3083.51 1765.93L3148.08 1826.72C3148.08 1826.72 3529.2 3347.16 2360.18 4201.28L2255.42 4213.98C2255.42 4213.98 3060.1 2772.21 3083.51 1765.93Z" fill="url(#paint12_radial_32_42)"/>
<path fill-rule="evenodd" clip-rule="evenodd" d="M2230.83 4195.31C2230.83 4195.31 1241.24 3609.52 1207.62 1862.29L1765.42 1268.17C1765.42 1268.17 2470.84 1368.74 2904.78 1681.87C2905.72 1681.46 3445.85 3343.15 2230.83 4195.31Z" fill="#FE7033"/>
<path fill-rule="evenodd" clip-rule="evenodd" d="M2253.38 4218.54C2253.38 4218.54 1263.99 3632.67 1230.1 1884.45L1782.09 1301.01C1782.09 1301.01 2270.92 1329.55 3082.65 1776.13C3083.19 1776.5 3468.52 3366.59 2253.38 4218.54Z" fill="url(#paint13_linear_32_42)"/>
<path fill-rule="evenodd" clip-rule="evenodd" d="M1275.66 1939.73C1275.66 1939.73 1268.56 3324.97 2175.79 4055.45C2175.79 4055.45 3219.44 3509.36 3009.06 1846.42C3009.06 1846.42 2461.38 1481.55 1765.63 1390.16C1765.86 1390.67 1419.69 1740.62 1275.66 1939.73Z" fill="url(#paint14_radial_32_42)"/>
<path style="mix-blend-mode:multiply" opacity="0.86" fill-rule="evenodd" clip-rule="evenodd" d="M1781.48 1300.4C1781.48 1300.4 1524.68 2650.6 2252.35 4214.26C2252.35 4214.26 3415.93 3546.97 3082.88 1774.68C3083.02 1775.43 2606.44 1467.26 1781.48 1300.4Z" fill="url(#paint15_linear_32_42)"/>
<path style="mix-blend-mode:soft-light" fill-rule="evenodd" clip-rule="evenodd" d="M2612.37 1599C2612.37 1599 2910.42 1732.44 3014 1825.04C3070.51 2154.26 3066.13 2487.29 3001.13 2805.82L3094.57 2848.95C3094.57 2848.95 3194.91 2263.03 3080.93 1768.29C3080.93 1768.29 2800.09 1608.26 2600.83 1534.4L2612.37 1599Z" fill="url(#paint16_linear_32_42)"/>
<path style="mix-blend-mode:soft-light" fill-rule="evenodd" clip-rule="evenodd" d="M2923.96 3089.84C2953.08 3019.74 2974.46 2945.9 2987.72 2869.67L3085.41 2904.94C3067.6 2998.44 3043.83 3090.15 3014.25 3179.47L2923.96 3089.84Z" fill="url(#paint17_linear_32_42)"/>
<mask id="path-35-outside-1_32_42" maskUnits="userSpaceOnUse" x="2171.87" y="2488.19" width="2808" height="1563" fill="black">
<rect fill="white" x="2171.87" y="2488.19" width="2808" height="1563"/>
<path d="M2277.32 3088.78L2175.87 3029.22V2969.46H2277.32V3059H2378.78V2760.61H2277.32L2175.87 2701.05V2551.75L2277.32 2492.19H2378.78L2480.23 2551.75V2611.51H2378.78V2521.97H2277.32V2730.83H2378.78L2480.23 2790.59V3029.22L2378.78 3088.78H2277.32Z"/>
<path d="M2531.05 3088.78V2641.25L2615.6 2591.62V2790.49H2700.14V2641.25L2784.69 2591.62V3039.15L2700.14 3088.78V2815.3H2615.6V3039.15L2531.05 3088.78Z"/>
<path d="M2827.03 3088.78V3063.96H2911.58V2616.44H2827.03V2591.62H3080.67V2616.44H2996.12V3063.96H3080.67V3088.78H2827.03Z"/>
<path d="M3123.02 3088.78V2641.25L3207.56 2591.62H3376.65V2691.05H3292.11V2616.44H3207.56V2790.49H3376.65V2815.3H3207.56V3063.96H3292.11V2989.35H3376.65V3039.15L3292.11 3088.78H3123.02Z"/>
<path d="M3419 3088.78V2641.25L3503.55 2591.62V3063.96H3588.09V2989.35H3672.64V3039.15L3588.09 3088.78H3419Z"/>
<path d="M3884.07 3063.96V2616.44H3799.53V3063.96H3884.07ZM3714.98 3088.78V2641.25L3799.53 2591.62H3884.07L3968.62 2641.25V3039.15L3884.07 3088.78H3714.98Z"/>
<path d="M3090.18 4014.16V3715.77H2988.73V4014.16H3090.18ZM3090.18 3685.99V3477.13H2988.73V3685.99H3090.18ZM2887.27 4043.94V3506.91L2988.73 3447.36H3090.18L3191.64 3506.91V3641.32H3191.29L3140.82 3700.88L3191.64 3760.64V3984.38L3090.18 4043.94H2887.27Z"/>
<path d="M3242.45 4043.94V3596.42L3327 3546.79H3496.09V3646.22H3411.54V3571.6H3327V3745.65H3496.09V3770.46H3327V4019.12H3411.54V3944.51H3496.09V3994.31L3411.54 4043.94H3242.45Z"/>
<path d="M3707.53 3745.65V3571.6H3622.98V3745.65H3707.53ZM3538.43 4043.94V3596.42L3622.98 3546.79H3707.53L3792.07 3596.42V3994.31L3707.53 4043.94V3770.46H3622.98V3994.31L3538.43 4043.94Z"/>
<path d="M4003.51 3745.65V3571.6H3918.96V3745.65H4003.51ZM3834.42 4043.94V3596.42L3918.96 3546.79H4003.51L4088.05 3596.42V3708.42H4087.77L4045.71 3758.05L4088.05 3807.85V3994.31L4003.51 4043.94V3770.46H3918.96V3994.31L3834.42 4043.94Z"/>
<path d="M4130.4 4043.94V3596.42L4214.95 3546.79H4384.04V3646.22H4299.49V3571.6H4214.95V3745.65H4384.04V3770.46H4214.95V4019.12H4299.49V3944.51H4384.04V3994.31L4299.49 4043.94H4130.4Z"/>
<path d="M4595.48 3745.65V3571.6H4510.93V3745.65H4595.48ZM4426.38 4043.94V3596.42L4510.93 3546.79H4595.48L4680.02 3596.42V3708.42H4679.73L4637.68 3758.05L4680.02 3807.85V3994.31L4595.48 4043.94V3770.46H4510.93V3994.31L4426.38 4043.94Z"/>
<path d="M4806.91 4043.94L4722.37 3994.31V3944.51H4806.91V4019.12H4891.46V3770.46H4806.91L4722.37 3720.83V3596.42L4806.91 3546.79H4891.46L4976 3596.42V3646.22H4891.46V3571.6H4806.91V3745.65H4891.46L4976 3795.45V3994.31L4891.46 4043.94H4806.91Z"/>
</mask>
<path d="M2277.32 3088.78L2175.87 3029.22V2969.46H2277.32V3059H2378.78V2760.61H2277.32L2175.87 2701.05V2551.75L2277.32 2492.19H2378.78L2480.23 2551.75V2611.51H2378.78V2521.97H2277.32V2730.83H2378.78L2480.23 2790.59V3029.22L2378.78 3088.78H2277.32Z" fill="white"/>
<path d="M2531.05 3088.78V2641.25L2615.6 2591.62V2790.49H2700.14V2641.25L2784.69 2591.62V3039.15L2700.14 3088.78V2815.3H2615.6V3039.15L2531.05 3088.78Z" fill="white"/>
<path d="M2827.03 3088.78V3063.96H2911.58V2616.44H2827.03V2591.62H3080.67V2616.44H2996.12V3063.96H3080.67V3088.78H2827.03Z" fill="white"/>
<path d="M3123.02 3088.78V2641.25L3207.56 2591.62H3376.65V2691.05H3292.11V2616.44H3207.56V2790.49H3376.65V2815.3H3207.56V3063.96H3292.11V2989.35H3376.65V3039.15L3292.11 3088.78H3123.02Z" fill="white"/>
<path d="M3419 3088.78V2641.25L3503.55 2591.62V3063.96H3588.09V2989.35H3672.64V3039.15L3588.09 3088.78H3419Z" fill="white"/>
<path d="M3884.07 3063.96V2616.44H3799.53V3063.96H3884.07ZM3714.98 3088.78V2641.25L3799.53 2591.62H3884.07L3968.62 2641.25V3039.15L3884.07 3088.78H3714.98Z" fill="white"/>
<path d="M3090.18 4014.16V3715.77H2988.73V4014.16H3090.18ZM3090.18 3685.99V3477.13H2988.73V3685.99H3090.18ZM2887.27 4043.94V3506.91L2988.73 3447.36H3090.18L3191.64 3506.91V3641.32H3191.29L3140.82 3700.88L3191.64 3760.64V3984.38L3090.18 4043.94H2887.27Z" fill="white"/>
<path d="M3242.45 4043.94V3596.42L3327 3546.79H3496.09V3646.22H3411.54V3571.6H3327V3745.65H3496.09V3770.46H3327V4019.12H3411.54V3944.51H3496.09V3994.31L3411.54 4043.94H3242.45Z" fill="white"/>
<path d="M3707.53 3745.65V3571.6H3622.98V3745.65H3707.53ZM3538.43 4043.94V3596.42L3622.98 3546.79H3707.53L3792.07 3596.42V3994.31L3707.53 4043.94V3770.46H3622.98V3994.31L3538.43 4043.94Z" fill="white"/>
<path d="M4003.51 3745.65V3571.6H3918.96V3745.65H4003.51ZM3834.42 4043.94V3596.42L3918.96 3546.79H4003.51L4088.05 3596.42V3708.42H4087.77L4045.71 3758.05L4088.05 3807.85V3994.31L4003.51 4043.94V3770.46H3918.96V3994.31L3834.42 4043.94Z" fill="white"/>
<path d="M4130.4 4043.94V3596.42L4214.95 3546.79H4384.04V3646.22H4299.49V3571.6H4214.95V3745.65H4384.04V3770.46H4214.95V4019.12H4299.49V3944.51H4384.04V3994.31L4299.49 4043.94H4130.4Z" fill="white"/>
<path d="M4595.48 3745.65V3571.6H4510.93V3745.65H4595.48ZM4426.38 4043.94V3596.42L4510.93 3546.79H4595.48L4680.02 3596.42V3708.42H4679.73L4637.68 3758.05L4680.02 3807.85V3994.31L4595.48 4043.94V3770.46H4510.93V3994.31L4426.38 4043.94Z" fill="white"/>
<path d="M4806.91 4043.94L4722.37 3994.31V3944.51H4806.91V4019.12H4891.46V3770.46H4806.91L4722.37 3720.83V3596.42L4806.91 3546.79H4891.46L4976 3596.42V3646.22H4891.46V3571.6H4806.91V3745.65H4891.46L4976 3795.45V3994.31L4891.46 4043.94H4806.91Z" fill="white"/>
<path d="M2277.32 3088.78L2175.87 3029.22V2969.46H2277.32V3059H2378.78V2760.61H2277.32L2175.87 2701.05V2551.75L2277.32 2492.19H2378.78L2480.23 2551.75V2611.51H2378.78V2521.97H2277.32V2730.83H2378.78L2480.23 2790.59V3029.22L2378.78 3088.78H2277.32Z" stroke="#654A92" stroke-width="7.35534" mask="url(#path-35-outside-1_32_42)"/>
<path d="M2531.05 3088.78V2641.25L2615.6 2591.62V2790.49H2700.14V2641.25L2784.69 2591.62V3039.15L2700.14 3088.78V2815.3H2615.6V3039.15L2531.05 3088.78Z" stroke="#654A92" stroke-width="7.35534" mask="url(#path-35-outside-1_32_42)"/>
<path d="M2827.03 3088.78V3063.96H2911.58V2616.44H2827.03V2591.62H3080.67V2616.44H2996.12V3063.96H3080.67V3088.78H2827.03Z" stroke="#654A92" stroke-width="7.35534" mask="url(#path-35-outside-1_32_42)"/>
<path d="M3123.02 3088.78V2641.25L3207.56 2591.62H3376.65V2691.05H3292.11V2616.44H3207.56V2790.49H3376.65V2815.3H3207.56V3063.96H3292.11V2989.35H3376.65V3039.15L3292.11 3088.78H3123.02Z" stroke="#654A92" stroke-width="7.35534" mask="url(#path-35-outside-1_32_42)"/>
<path d="M3419 3088.78V2641.25L3503.55 2591.62V3063.96H3588.09V2989.35H3672.64V3039.15L3588.09 3088.78H3419Z" stroke="#654A92" stroke-width="7.35534" mask="url(#path-35-outside-1_32_42)"/>
<path d="M3884.07 3063.96V2616.44H3799.53V3063.96H3884.07ZM3714.98 3088.78V2641.25L3799.53 2591.62H3884.07L3968.62 2641.25V3039.15L3884.07 3088.78H3714.98Z" stroke="#654A92" stroke-width="7.35534" mask="url(#path-35-outside-1_32_42)"/>
<path d="M3090.18 4014.16V3715.77H2988.73V4014.16H3090.18ZM3090.18 3685.99V3477.13H2988.73V3685.99H3090.18ZM2887.27 4043.94V3506.91L2988.73 3447.36H3090.18L3191.64 3506.91V3641.32H3191.29L3140.82 3700.88L3191.64 3760.64V3984.38L3090.18 4043.94H2887.27Z" stroke="#654A92" stroke-width="7.35534" mask="url(#path-35-outside-1_32_42)"/>
<path d="M3242.45 4043.94V3596.42L3327 3546.79H3496.09V3646.22H3411.54V3571.6H3327V3745.65H3496.09V3770.46H3327V4019.12H3411.54V3944.51H3496.09V3994.31L3411.54 4043.94H3242.45Z" stroke="#654A92" stroke-width="7.35534" mask="url(#path-35-outside-1_32_42)"/>
<path d="M3707.53 3745.65V3571.6H3622.98V3745.65H3707.53ZM3538.43 4043.94V3596.42L3622.98 3546.79H3707.53L3792.07 3596.42V3994.31L3707.53 4043.94V3770.46H3622.98V3994.31L3538.43 4043.94Z" stroke="#654A92" stroke-width="7.35534" mask="url(#path-35-outside-1_32_42)"/>
<path d="M4003.51 3745.65V3571.6H3918.96V3745.65H4003.51ZM3834.42 4043.94V3596.42L3918.96 3546.79H4003.51L4088.05 3596.42V3708.42H4087.77L4045.71 3758.05L4088.05 3807.85V3994.31L4003.51 4043.94V3770.46H3918.96V3994.31L3834.42 4043.94Z" stroke="#654A92" stroke-width="7.35534" mask="url(#path-35-outside-1_32_42)"/>
<path d="M4130.4 4043.94V3596.42L4214.95 3546.79H4384.04V3646.22H4299.49V3571.6H4214.95V3745.65H4384.04V3770.46H4214.95V4019.12H4299.49V3944.51H4384.04V3994.31L4299.49 4043.94H4130.4Z" stroke="#654A92" stroke-width="7.35534" mask="url(#path-35-outside-1_32_42)"/>
<path d="M4595.48 3745.65V3571.6H4510.93V3745.65H4595.48ZM4426.38 4043.94V3596.42L4510.93 3546.79H4595.48L4680.02 3596.42V3708.42H4679.73L4637.68 3758.05L4680.02 3807.85V3994.31L4595.48 4043.94V3770.46H4510.93V3994.31L4426.38 4043.94Z" stroke="#654A92" stroke-width="7.35534" mask="url(#path-35-outside-1_32_42)"/>
<path d="M4806.91 4043.94L4722.37 3994.31V3944.51H4806.91V4019.12H4891.46V3770.46H4806.91L4722.37 3720.83V3596.42L4806.91 3546.79H4891.46L4976 3596.42V3646.22H4891.46V3571.6H4806.91V3745.65H4891.46L4976 3795.45V3994.31L4891.46 4043.94H4806.91Z" stroke="#654A92" stroke-width="7.35534" mask="url(#path-35-outside-1_32_42)"/>
<defs>
<linearGradient id="paint0_linear_32_42" x1="3995.53" y1="1512.33" x2="3799.14" y2="1315.03" gradientUnits="userSpaceOnUse">
<stop stop-color="#602159"/>
<stop offset="1" stop-color="#44163A"/>
</linearGradient>
<linearGradient id="paint1_linear_32_42" x1="3346.19" y1="1935.98" x2="1254.9" y2="3879.33" gradientUnits="userSpaceOnUse">
<stop stop-color="#C2BFC5"/>
<stop offset="0.03" stop-color="#A6A3A9"/>
<stop offset="0.31" stop-color="#E1DFF0"/>
<stop offset="0.41" stop-color="#C2BFC5"/>
<stop offset="0.59" stop-color="#C2BFC5"/>
<stop offset="0.75" stop-color="#C2BFC5"/>
<stop offset="0.89" stop-color="#707474"/>
<stop offset="1" stop-color="#7F8B8C"/>
</linearGradient>
<linearGradient id="paint2_linear_32_42" x1="2080.84" y1="3248.26" x2="1995.09" y2="2964.29" gradientUnits="userSpaceOnUse">
<stop stop-color="#B1F0B6"/>
<stop offset="0.09" stop-color="#A9E5AD"/>
<stop offset="0.25" stop-color="#92C696"/>
<stop offset="0.47" stop-color="#6E9571"/>
<stop offset="0.73" stop-color="#3B503D"/>
<stop offset="1"/>
</linearGradient>
<linearGradient id="paint3_linear_32_42" x1="-182022" y1="132469" x2="-186472" y2="117670" gradientUnits="userSpaceOnUse">
<stop stop-color="#B1F0B6"/>
<stop offset="0.09" stop-color="#A9E5AD"/>
<stop offset="0.25" stop-color="#92C696"/>
<stop offset="0.47" stop-color="#6E9571"/>
<stop offset="0.73" stop-color="#3B503D"/>
<stop offset="1"/>
</linearGradient>
<linearGradient id="paint4_linear_32_42" x1="1760.04" y1="4410.64" x2="1821.56" y2="2450.65" gradientUnits="userSpaceOnUse">
<stop stop-color="#E1DFF0"/>
<stop offset="0.128125" stop-color="#C2BFC5"/>
<stop offset="0.17" stop-color="#C2BFC5"/>
<stop offset="0.352083" stop-color="#A2A2A2"/>
<stop offset="0.64" stop-color="#C2BFC5"/>
<stop offset="0.84" stop-color="#ACA9B0"/>
<stop offset="1" stop-color="#646868"/>
</linearGradient>
<linearGradient id="paint5_linear_32_42" x1="2217.17" y1="3814.82" x2="2017.79" y2="3150.96" gradientUnits="userSpaceOnUse">
<stop stop-color="#B8B8B8"/>
<stop offset="0.0656249" stop-color="#B4B4B4"/>
<stop offset="0.24" stop-color="#AEAEAE"/>
<stop offset="0.47" stop-color="#9E9E9E"/>
<stop offset="0.67" stop-color="#A7A7A7"/>
<stop offset="0.86" stop-color="#7E7E7E"/>
<stop offset="1" stop-color="#525252"/>
</linearGradient>
<linearGradient id="paint6_linear_32_42" x1="2704.89" y1="1957.33" x2="3670.5" y2="2427.45" gradientUnits="userSpaceOnUse">
<stop stop-color="#9882BD"/>
<stop offset="1" stop-color="#8564A5"/>
</linearGradient>
<linearGradient id="paint7_linear_32_42" x1="-76870.8" y1="39721.4" x2="-72325.9" y2="45886.2" gradientUnits="userSpaceOnUse">
<stop stop-color="#A791C4"/>
<stop offset="1" stop-color="#583E81"/>
</linearGradient>
<linearGradient id="paint8_linear_32_42" x1="3185.5" y1="1409.8" x2="3034.05" y2="2008.81" gradientUnits="userSpaceOnUse">
<stop stop-color="#C4936E"/>
<stop offset="0.11" stop-color="#B98A68"/>
<stop offset="0.3" stop-color="#9A7456"/>
<stop offset="0.55" stop-color="#694F3B"/>
<stop offset="0.85" stop-color="#251C15"/>
<stop offset="1"/>
</linearGradient>
<linearGradient id="paint9_linear_32_42" x1="-35534.3" y1="11131" x2="-38644.8" y2="13039.3" gradientUnits="userSpaceOnUse">
<stop stop-color="#C0B0DB"/>
<stop offset="0.11" stop-color="#9498E0"/>
<stop offset="0.3" stop-color="#B3CAFF"/>
<stop offset="0.55" stop-color="#8670B4"/>
<stop offset="0.85" stop-color="#8E77B7"/>
<stop offset="1" stop-color="#EEE3EE"/>
</linearGradient>
<linearGradient id="paint10_linear_32_42" x1="4476.31" y1="603.409" x2="4705.14" y2="879.354" gradientUnits="userSpaceOnUse">
<stop stop-color="#8B6DAD"/>
<stop offset="1" stop-color="#654A92"/>
</linearGradient>
<linearGradient id="paint11_linear_32_42" x1="4605.06" y1="543.531" x2="4684.51" y2="874.772" gradientUnits="userSpaceOnUse">
<stop offset="0.01" stop-color="#2B0652"/>
<stop offset="1" stop-color="#27A3DF"/>
</linearGradient>
<radialGradient id="paint12_radial_32_42" cx="0" cy="0" r="1" gradientUnits="userSpaceOnUse" gradientTransform="translate(2721.61 2828.83) rotate(0.021684) scale(825.098 975.358)">
<stop stop-color="#B3819D"/>
<stop offset="1" stop-color="#785CA6"/>
</radialGradient>
<linearGradient id="paint13_linear_32_42" x1="2717.04" y1="3922.39" x2="1878.8" y2="1118.64" gradientUnits="userSpaceOnUse">
<stop stop-color="#B2C9FF"/>
<stop offset="0.21" stop-color="#8E7BBB"/>
<stop offset="1" stop-color="#F6ECF2"/>
</linearGradient>
<radialGradient id="paint14_radial_32_42" cx="0" cy="0" r="1" gradientUnits="userSpaceOnUse" gradientTransform="translate(1961 2467.47) rotate(0.0249541) scale(1449.29 1708.49)">
<stop stop-color="#7D2E64"/>
<stop offset="0.99" stop-color="#662054"/>
</radialGradient>
<linearGradient id="paint15_linear_32_42" x1="1789.31" y1="2599.44" x2="3175.42" y2="2512.04" gradientUnits="userSpaceOnUse">
<stop offset="0.02" stop-color="#AB9CE3"/>
<stop offset="1" stop-color="white"/>
</linearGradient>
<linearGradient id="paint16_linear_32_42" x1="2938.09" y1="2687.73" x2="2939.75" y2="1376.39" gradientUnits="userSpaceOnUse">
<stop offset="0.02" stop-color="#E2DCEB"/>
<stop offset="1" stop-color="white"/>
</linearGradient>
<linearGradient id="paint17_linear_32_42" x1="-746113" y1="142337" x2="-748560" y2="143435" gradientUnits="userSpaceOnUse">
<stop offset="0.02" stop-color="#E2DCEB"/>
<stop offset="1" stop-color="white"/>
</linearGradient>
</defs>
</svg>
